<mxfile host="Electron" agent="Mozilla/5.0 (X11; Linux x86_64) AppleWebKit/537.36 (KHTML, like Gecko) draw.io/24.7.5 Chrome/126.0.6478.183 Electron/31.3.0 Safari/537.36" version="24.7.5">
  <diagram name="Page-1" id="c37626ed-c26b-45fb-9056-f9ebc6bb27b6">
    <mxGraphModel dx="794" dy="512" grid="1" gridSize="10" guides="1" tooltips="1" connect="1" arrows="1" fold="1" page="1" pageScale="1" pageWidth="1100" pageHeight="850" background="none" math="0" shadow="0">
      <root>
        <mxCell id="0" />
        <mxCell id="1" parent="0" />
        <mxCell id="1c7a67bf8fd3230f-83" value="LAN (192.168.0.1 - 9)/24" style="whiteSpace=wrap;html=1;rounded=0;shadow=0;comic=0;strokeWidth=1;fontFamily=Verdana;fontSize=14;fillColor=#666666;strokeColor=none;verticalAlign=top;fontStyle=1" parent="1" vertex="1">
          <mxGeometry x="510" y="460" width="1205" height="1030" as="geometry" />
        </mxCell>
        <mxCell id="1c7a67bf8fd3230f-81" value="VLAN 2 (192.168.0.100 - 149)/24" style="whiteSpace=wrap;html=1;rounded=0;shadow=0;comic=0;strokeWidth=1;fontFamily=Verdana;fontSize=14;fillColor=#404040;strokeColor=none;fontStyle=1;verticalAlign=top;" parent="1" vertex="1">
          <mxGeometry x="1200" y="834.5" width="460" height="587" as="geometry" />
        </mxCell>
        <mxCell id="kayt-Z3dTmFXOF1LMzfD-6" value="" style="whiteSpace=wrap;html=1;aspect=fixed;fillColor=#780303;fontColor=#ffffff;strokeColor=#6F0000;" parent="1" vertex="1">
          <mxGeometry x="1432.52" y="1220" width="180" height="180" as="geometry" />
        </mxCell>
        <mxCell id="1c7a67bf8fd3230f-80" value="VLAN 1 (192.168.0.10 - 99)/24" style="whiteSpace=wrap;html=1;rounded=0;shadow=0;comic=0;strokeWidth=1;fontFamily=Verdana;fontSize=14;fillColor=#404040;strokeColor=none;fontStyle=1;verticalAlign=top;" parent="1" vertex="1">
          <mxGeometry x="570" y="840" width="460" height="390" as="geometry" />
        </mxCell>
        <mxCell id="1c7a67bf8fd3230f-55" style="edgeStyle=none;html=1;labelBackgroundColor=none;startFill=0;endArrow=none;endFill=0;strokeWidth=2;fontFamily=Verdana;fontSize=12;entryX=0.5;entryY=0;entryDx=0;entryDy=0;entryPerimeter=0;" parent="1" source="1c7a67bf8fd3230f-46" target="LNqC5kJU6h0bBcwvTaA4-3" edge="1">
          <mxGeometry relative="1" as="geometry">
            <mxPoint x="1101.4604810996561" y="651" as="targetPoint" />
          </mxGeometry>
        </mxCell>
        <mxCell id="1c7a67bf8fd3230f-46" value="" style="shape=mxgraph.cisco.routers.router;html=1;dashed=0;fillColor=#036897;strokeColor=#ffffff;strokeWidth=2;verticalLabelPosition=bottom;verticalAlign=top;rounded=0;shadow=0;comic=0;fontFamily=Verdana;fontSize=12;" parent="1" vertex="1">
          <mxGeometry x="1086" y="571" width="78" height="53" as="geometry" />
        </mxCell>
        <mxCell id="1c7a67bf8fd3230f-52" style="edgeStyle=none;html=1;labelBackgroundColor=none;startFill=0;endArrow=none;endFill=0;strokeWidth=2;fontFamily=Verdana;fontSize=12;exitX=0;exitY=0.5;exitDx=0;exitDy=0;exitPerimeter=0;entryX=0.875;entryY=0.5;entryDx=0;entryDy=0;entryPerimeter=0;" parent="1" source="1c7a67bf8fd3230f-46" target="1c7a67bf8fd3230f-15" edge="1">
          <mxGeometry relative="1" as="geometry">
            <mxPoint x="917.5" y="510" as="sourcePoint" />
          </mxGeometry>
        </mxCell>
        <mxCell id="LNqC5kJU6h0bBcwvTaA4-3" value="" style="shape=mxgraph.cisco.switches.layer_2_remote_switch;sketch=0;html=1;pointerEvents=1;dashed=0;fillColor=#036897;strokeColor=#ffffff;strokeWidth=2;verticalLabelPosition=bottom;verticalAlign=top;align=center;outlineConnect=0;" parent="1" vertex="1">
          <mxGeometry x="1074.5" y="741" width="101" height="50" as="geometry" />
        </mxCell>
        <mxCell id="LNqC5kJU6h0bBcwvTaA4-20" value="&lt;div&gt;&lt;b&gt;TP-Link Managed Switch&lt;/b&gt;&lt;br&gt;(Port-Based VLAN)&lt;/div&gt;&lt;i&gt;192.168.0.5&lt;/i&gt;&lt;div&gt;&lt;i&gt;home-ok-sw01p&lt;/i&gt;&lt;br&gt;&lt;/div&gt;" style="text;html=1;align=center;verticalAlign=middle;whiteSpace=wrap;rounded=0;" parent="1" vertex="1">
          <mxGeometry x="1127.5" y="680" width="150.5" height="61" as="geometry" />
        </mxCell>
        <mxCell id="LNqC5kJU6h0bBcwvTaA4-21" value="&lt;div&gt;&lt;b&gt;TP-Link Router&lt;/b&gt;&lt;/div&gt;&lt;div style=&quot;&quot;&gt;(Routing, VPN)&lt;/div&gt;&lt;i&gt;192.168.0.1&lt;/i&gt;&lt;div&gt;&lt;i&gt;home-ok-ro01p&lt;/i&gt;&lt;br&gt;&lt;/div&gt;" style="text;html=1;align=center;verticalAlign=middle;whiteSpace=wrap;rounded=0;" parent="1" vertex="1">
          <mxGeometry x="1153.75" y="521" width="98" height="50" as="geometry" />
        </mxCell>
        <mxCell id="LNqC5kJU6h0bBcwvTaA4-22" value="" style="shape=mxgraph.cisco.servers.standard_host;sketch=0;html=1;pointerEvents=1;dashed=0;fillColor=#036897;strokeColor=#ffffff;strokeWidth=2;verticalLabelPosition=bottom;verticalAlign=top;align=center;outlineConnect=0;" parent="1" vertex="1">
          <mxGeometry x="946.6" y="868" width="43" height="62" as="geometry" />
        </mxCell>
        <mxCell id="LNqC5kJU6h0bBcwvTaA4-23" value="" style="shape=mxgraph.cisco.servers.standard_host;sketch=0;html=1;pointerEvents=1;dashed=0;fillColor=#036897;strokeColor=#ffffff;strokeWidth=2;verticalLabelPosition=bottom;verticalAlign=top;align=center;outlineConnect=0;" parent="1" vertex="1">
          <mxGeometry x="1600.99" y="961" width="43" height="62" as="geometry" />
        </mxCell>
        <mxCell id="LNqC5kJU6h0bBcwvTaA4-25" value="" style="rounded=0;whiteSpace=wrap;html=1;" parent="1" vertex="1">
          <mxGeometry x="580" y="953" width="361.5" height="263" as="geometry" />
        </mxCell>
        <mxCell id="LNqC5kJU6h0bBcwvTaA4-26" value="" style="image;sketch=0;aspect=fixed;html=1;points=[];align=center;fontSize=12;image=img/lib/mscae/VM_Linux.svg;" parent="1" vertex="1">
          <mxGeometry x="750.75" y="1023" width="50" height="46" as="geometry" />
        </mxCell>
        <mxCell id="LNqC5kJU6h0bBcwvTaA4-31" value="&lt;b&gt;Debian 12&lt;/b&gt;&lt;div&gt;(Bitwarden)&lt;/div&gt;&lt;div&gt;&lt;i&gt;192.168.0.25&lt;/i&gt;&lt;/div&gt;&lt;div&gt;&lt;i&gt;home-ok-bw01p&lt;/i&gt;&lt;/div&gt;" style="text;html=1;align=center;verticalAlign=middle;whiteSpace=wrap;rounded=0;" parent="1" vertex="1">
          <mxGeometry x="729.25" y="966" width="94" height="46" as="geometry" />
        </mxCell>
        <mxCell id="LNqC5kJU6h0bBcwvTaA4-39" value="&lt;p style=&quot;margin-bottom: 0px; margin-top: 11.62px;&quot;&gt;&lt;font style=&quot;font-size: 12px;&quot;&gt;&lt;b&gt;Debian 12&lt;/b&gt;&lt;/font&gt;&lt;/p&gt;&lt;p style=&quot;margin-bottom: 0px; margin-top: 0px;&quot;&gt;(Proxmox: Hyper-Visor)&lt;/p&gt;&lt;h2 style=&quot;margin-bottom: 0px; margin-top: 0px;&quot;&gt;&lt;i style=&quot;font-weight: 400; background-color: initial; font-size: 12px;&quot;&gt;&lt;font style=&quot;font-size: 12px;&quot;&gt;192.168.0.20&lt;/font&gt;&lt;/i&gt;&lt;/h2&gt;&lt;div style=&quot;&quot;&gt;&lt;i style=&quot;&quot;&gt;&lt;font style=&quot;font-size: 12px;&quot;&gt;home-ok-hv01p&lt;/font&gt;&lt;/i&gt;&lt;i style=&quot;font-size: 13px; font-weight: 400; background-color: initial;&quot;&gt;&lt;br&gt;&lt;/i&gt;&lt;/div&gt;" style="text;html=1;align=center;verticalAlign=middle;whiteSpace=wrap;rounded=0;" parent="1" vertex="1">
          <mxGeometry x="760" y="886" width="200" height="40" as="geometry" />
        </mxCell>
        <mxCell id="LNqC5kJU6h0bBcwvTaA4-41" value="" style="image;sketch=0;aspect=fixed;html=1;points=[];align=center;fontSize=12;image=img/lib/mscae/VM_Linux.svg;" parent="1" vertex="1">
          <mxGeometry x="633.5" y="1023" width="50" height="46" as="geometry" />
        </mxCell>
        <mxCell id="LNqC5kJU6h0bBcwvTaA4-42" value="&lt;b&gt;Debian 12&lt;/b&gt;&lt;div&gt;(OPNsense: DHCP, DNS)&lt;/div&gt;&lt;div&gt;&lt;i&gt;LAN: 192.168.0.21&lt;/i&gt;&lt;/div&gt;&lt;div&gt;&lt;i&gt;WAN: 192.168.0.22&lt;/i&gt;&lt;/div&gt;&lt;div&gt;&lt;i&gt;home-ok-ro02p&lt;/i&gt;&lt;/div&gt;" style="text;html=1;align=center;verticalAlign=middle;whiteSpace=wrap;rounded=0;" parent="1" vertex="1">
          <mxGeometry x="583" y="966" width="151" height="46" as="geometry" />
        </mxCell>
        <mxCell id="LNqC5kJU6h0bBcwvTaA4-43" value="&lt;b&gt;Debian 12&lt;/b&gt;&lt;div&gt;(TurtleNAS)&lt;/div&gt;&lt;div&gt;&lt;i&gt;192.168.0.26&lt;/i&gt;&lt;/div&gt;&lt;div&gt;&lt;i&gt;home-ok-na01p&lt;/i&gt;&lt;/div&gt;" style="text;html=1;align=center;verticalAlign=middle;whiteSpace=wrap;rounded=0;" parent="1" vertex="1">
          <mxGeometry x="840" y="966" width="93" height="46" as="geometry" />
        </mxCell>
        <mxCell id="LNqC5kJU6h0bBcwvTaA4-44" value="" style="image;sketch=0;aspect=fixed;html=1;points=[];align=center;fontSize=12;image=img/lib/mscae/VM_Linux.svg;" parent="1" vertex="1">
          <mxGeometry x="861" y="1023" width="50" height="46" as="geometry" />
        </mxCell>
        <mxCell id="LNqC5kJU6h0bBcwvTaA4-45" value="&lt;b&gt;Debian 12&lt;/b&gt;&lt;div&gt;(Desktop)&lt;/div&gt;&lt;div&gt;192.168.0.27&lt;/div&gt;&lt;div&gt;home-ok-de01p&lt;/div&gt;" style="text;html=1;align=center;verticalAlign=middle;whiteSpace=wrap;rounded=0;" parent="1" vertex="1">
          <mxGeometry x="611.5" y="1105" width="94" height="46" as="geometry" />
        </mxCell>
        <mxCell id="LNqC5kJU6h0bBcwvTaA4-46" value="" style="image;sketch=0;aspect=fixed;html=1;points=[];align=center;fontSize=12;image=img/lib/mscae/VM_Linux.svg;" parent="1" vertex="1">
          <mxGeometry x="633" y="1163" width="50" height="46" as="geometry" />
        </mxCell>
        <mxCell id="LNqC5kJU6h0bBcwvTaA4-48" value="" style="endArrow=classic;html=1;rounded=1;strokeWidth=2;curved=0;" parent="1" edge="1">
          <mxGeometry width="50" height="50" relative="1" as="geometry">
            <mxPoint x="1086" y="792" as="sourcePoint" />
            <mxPoint x="1000" y="890" as="targetPoint" />
            <Array as="points">
              <mxPoint x="1050" y="890" />
            </Array>
          </mxGeometry>
        </mxCell>
        <mxCell id="LNqC5kJU6h0bBcwvTaA4-49" value="" style="shape=mxgraph.cisco.computers_and_peripherals.laptop;sketch=0;html=1;pointerEvents=1;dashed=0;fillColor=#036897;strokeColor=#ffffff;strokeWidth=2;verticalLabelPosition=bottom;verticalAlign=top;align=center;outlineConnect=0;" parent="1" vertex="1">
          <mxGeometry x="711.9" y="681" width="87.05" height="59" as="geometry" />
        </mxCell>
        <mxCell id="LNqC5kJU6h0bBcwvTaA4-52" value="&lt;b&gt;Windows 11&lt;br&gt;&lt;/b&gt;(PC/Guest)&lt;div&gt;&lt;i&gt;IP via DHCP&lt;/i&gt;&lt;/div&gt;" style="text;html=1;align=center;verticalAlign=middle;whiteSpace=wrap;rounded=0;" parent="1" vertex="1">
          <mxGeometry x="705.5" y="641" width="121.9" height="30" as="geometry" />
        </mxCell>
        <mxCell id="LNqC5kJU6h0bBcwvTaA4-53" value="&lt;b&gt;Windows Server&lt;/b&gt;&lt;div&gt;(Active Directory, DNS&lt;span style=&quot;background-color: initial;&quot;&gt;)&lt;/span&gt;&lt;/div&gt;&lt;div&gt;&lt;i&gt;192.168.0.100&lt;/i&gt;&lt;/div&gt;&lt;div&gt;&lt;i&gt;home-ok-ws01p&lt;/i&gt;&lt;/div&gt;" style="text;html=1;align=center;verticalAlign=middle;whiteSpace=wrap;rounded=0;" parent="1" vertex="1">
          <mxGeometry x="1410" y="930" width="171" height="46" as="geometry" />
        </mxCell>
        <mxCell id="LNqC5kJU6h0bBcwvTaA4-57" value="&lt;h2 style=&quot;margin-bottom: 1.94px;&quot;&gt;&lt;font style=&quot;font-size: 12px;&quot;&gt;Windows Server Core&lt;/font&gt;&lt;/h2&gt;&lt;p style=&quot;margin-bottom: 1.94px; margin-top: 0px;&quot;&gt;&lt;font style=&quot;font-weight: normal; font-size: 12px;&quot;&gt;(Hyper-V: Hyper-Visor)&lt;/font&gt;&lt;/p&gt;&lt;div style=&quot;&quot;&gt;&lt;font style=&quot;font-size: 12px;&quot;&gt;&lt;i&gt;192.168.0.120&lt;/i&gt;&lt;/font&gt;&lt;/div&gt;&lt;div style=&quot;&quot;&gt;&lt;font style=&quot;font-size: 12px;&quot;&gt;&lt;i style=&quot;&quot;&gt;home-ok-hv02p&lt;/i&gt;&lt;/font&gt;&lt;/div&gt;" style="text;html=1;align=center;verticalAlign=middle;whiteSpace=wrap;rounded=0;" parent="1" vertex="1">
          <mxGeometry x="1247.49" y="1220.25" width="200" height="49" as="geometry" />
        </mxCell>
        <mxCell id="LNqC5kJU6h0bBcwvTaA4-58" value="" style="rounded=0;whiteSpace=wrap;html=1;" parent="1" vertex="1">
          <mxGeometry x="1447.49" y="1246.5" width="150" height="130.5" as="geometry" />
        </mxCell>
        <mxCell id="LNqC5kJU6h0bBcwvTaA4-59" value="&lt;b&gt;Debian 12&lt;/b&gt;&lt;div&gt;(Web-Server)&lt;/div&gt;&lt;div&gt;&lt;i&gt;192.168.0.121&lt;/i&gt;&lt;/div&gt;&lt;div&gt;&lt;i&gt;home-ok-na03p&lt;/i&gt;&lt;/div&gt;" style="text;html=1;align=center;verticalAlign=middle;whiteSpace=wrap;rounded=0;" parent="1" vertex="1">
          <mxGeometry x="1477.49" y="1262.5" width="90" height="46" as="geometry" />
        </mxCell>
        <mxCell id="LNqC5kJU6h0bBcwvTaA4-60" value="" style="image;sketch=0;aspect=fixed;html=1;points=[];align=center;fontSize=12;image=img/lib/mscae/VM_Linux.svg;" parent="1" vertex="1">
          <mxGeometry x="1496.99" y="1315" width="50" height="46" as="geometry" />
        </mxCell>
        <mxCell id="LNqC5kJU6h0bBcwvTaA4-67" value="" style="endArrow=classic;html=1;rounded=1;strokeWidth=2;curved=0;" parent="1" edge="1">
          <mxGeometry width="50" height="50" relative="1" as="geometry">
            <mxPoint x="1316" y="915" as="sourcePoint" />
            <mxPoint x="1599.49" y="1000" as="targetPoint" />
            <Array as="points">
              <mxPoint x="1316" y="1000" />
            </Array>
          </mxGeometry>
        </mxCell>
        <mxCell id="LNqC5kJU6h0bBcwvTaA4-63" value="" style="shape=mxgraph.cisco.switches.layer_2_remote_switch;sketch=0;html=1;pointerEvents=1;dashed=0;fillColor=#036897;strokeColor=#ffffff;strokeWidth=2;verticalLabelPosition=bottom;verticalAlign=top;align=center;outlineConnect=0;" parent="1" vertex="1">
          <mxGeometry x="1240" y="876" width="101" height="50" as="geometry" />
        </mxCell>
        <mxCell id="LNqC5kJU6h0bBcwvTaA4-70" value="" style="shape=mxgraph.cisco.computers_and_peripherals.laptop;sketch=0;html=1;pointerEvents=1;dashed=0;fillColor=#036897;strokeColor=#ffffff;strokeWidth=2;verticalLabelPosition=bottom;verticalAlign=top;align=center;outlineConnect=0;" parent="1" vertex="1">
          <mxGeometry x="1342.96" y="1092" width="87.05" height="59" as="geometry" />
        </mxCell>
        <mxCell id="LNqC5kJU6h0bBcwvTaA4-72" value="" style="endArrow=classic;html=1;rounded=1;strokeWidth=2;curved=0;entryX=0.28;entryY=0.5;entryDx=0;entryDy=0;entryPerimeter=0;exitX=0.5;exitY=1;exitDx=0;exitDy=0;exitPerimeter=0;" parent="1" source="LNqC5kJU6h0bBcwvTaA4-63" target="LNqC5kJU6h0bBcwvTaA4-70" edge="1">
          <mxGeometry width="50" height="50" relative="1" as="geometry">
            <mxPoint x="1230" y="976" as="sourcePoint" />
            <mxPoint x="1330" y="1380" as="targetPoint" />
            <Array as="points">
              <mxPoint x="1290" y="1122" />
            </Array>
          </mxGeometry>
        </mxCell>
        <mxCell id="LNqC5kJU6h0bBcwvTaA4-76" value="(Unmanaged Switch)" style="text;html=1;align=center;verticalAlign=middle;whiteSpace=wrap;rounded=0;" parent="1" vertex="1">
          <mxGeometry x="1350.49" y="876" width="119.51" height="30" as="geometry" />
        </mxCell>
        <mxCell id="LNqC5kJU6h0bBcwvTaA4-120" value="&lt;b&gt;Windows 11&lt;/b&gt;&lt;div&gt;&lt;span style=&quot;background-color: initial;&quot;&gt;(PC/Admin)&lt;/span&gt;&lt;/div&gt;&lt;div&gt;&lt;i style=&quot;background-color: initial;&quot;&gt;192.168.0.110&lt;/i&gt;&lt;br&gt;&lt;/div&gt;&lt;div&gt;&lt;i&gt;home-ok-de03p&lt;/i&gt;&lt;/div&gt;" style="text;html=1;align=center;verticalAlign=middle;whiteSpace=wrap;rounded=0;" parent="1" vertex="1">
          <mxGeometry x="1317.49" y="1036" width="171" height="46" as="geometry" />
        </mxCell>
        <mxCell id="LNqC5kJU6h0bBcwvTaA4-121" value="" style="shape=mxgraph.cisco.computers_and_peripherals.laptop;sketch=0;html=1;pointerEvents=1;dashed=0;fillColor=#036897;strokeColor=#ffffff;strokeWidth=2;verticalLabelPosition=bottom;verticalAlign=top;align=center;outlineConnect=0;" parent="1" vertex="1">
          <mxGeometry x="1320.44" y="1299.25" width="87.05" height="59" as="geometry" />
        </mxCell>
        <mxCell id="LNqC5kJU6h0bBcwvTaA4-123" value="DHCP Ranges&lt;div&gt;&lt;br&gt;&lt;/div&gt;&lt;div&gt;&lt;span style=&quot;background-color: initial;&quot;&gt;Unassigned/Available IP&#39;s&lt;/span&gt;&lt;/div&gt;&lt;div&gt;&lt;span style=&quot;font-weight: 400;&quot;&gt;192.168.0.150-199/24&lt;/span&gt;&lt;/div&gt;" style="whiteSpace=wrap;html=1;rounded=0;shadow=0;comic=0;strokeWidth=1;fontFamily=Verdana;fontSize=14;fillColor=#404040;strokeColor=none;fontStyle=1;verticalAlign=top;" parent="1" vertex="1">
          <mxGeometry x="1530" y="480" width="130" height="90" as="geometry" />
        </mxCell>
        <mxCell id="LNqC5kJU6h0bBcwvTaA4-125" value="Living-room" style="text;html=1;align=center;verticalAlign=middle;whiteSpace=wrap;rounded=0;fontStyle=4;fontSize=25;" parent="1" vertex="1">
          <mxGeometry x="900" y="420" width="410" height="30" as="geometry" />
        </mxCell>
        <mxCell id="LNqC5kJU6h0bBcwvTaA4-126" value="Closet" style="text;html=1;align=center;verticalAlign=middle;whiteSpace=wrap;rounded=0;fontStyle=4;fontSize=25;" parent="1" vertex="1">
          <mxGeometry x="1205.5" y="804.5" width="410" height="30" as="geometry" />
        </mxCell>
        <mxCell id="LNqC5kJU6h0bBcwvTaA4-131" value="" style="shape=mxgraph.cisco.computers_and_peripherals.laptop;sketch=0;html=1;pointerEvents=1;dashed=0;fillColor=#036897;strokeColor=#ffffff;strokeWidth=2;verticalLabelPosition=bottom;verticalAlign=top;align=center;outlineConnect=0;" parent="1" vertex="1">
          <mxGeometry x="861" y="756" width="87.05" height="59" as="geometry" />
        </mxCell>
        <mxCell id="g1xqZOuWIzbBwdJRj0BN-1" value="" style="endArrow=none;html=1;rounded=0;entryX=0.5;entryY=1;entryDx=0;entryDy=0;entryPerimeter=0;strokeWidth=2;exitX=1.004;exitY=0.163;exitDx=0;exitDy=0;exitPerimeter=0;" parent="1" source="LNqC5kJU6h0bBcwvTaA4-25" target="LNqC5kJU6h0bBcwvTaA4-22" edge="1">
          <mxGeometry width="50" height="50" relative="1" as="geometry">
            <mxPoint x="950" y="998" as="sourcePoint" />
            <mxPoint x="1110" y="1000" as="targetPoint" />
            <Array as="points">
              <mxPoint x="968" y="996" />
            </Array>
          </mxGeometry>
        </mxCell>
        <mxCell id="LNqC5kJU6h0bBcwvTaA4-132" value="&lt;b&gt;Debian 12&lt;/b&gt;&lt;div&gt;(PC/Admin)&lt;div&gt;&lt;i&gt;192.168.0.10&lt;/i&gt;&lt;/div&gt;&lt;div&gt;&lt;i&gt;home-xx-pd01p&lt;/i&gt;&lt;/div&gt;&lt;/div&gt;" style="text;html=1;align=center;verticalAlign=middle;whiteSpace=wrap;rounded=0;" parent="1" vertex="1">
          <mxGeometry x="866" y="709" width="109.1" height="30" as="geometry" />
        </mxCell>
        <mxCell id="LNqC5kJU6h0bBcwvTaA4-134" value="" style="endArrow=none;dashed=1;html=1;dashPattern=1 3;strokeWidth=2;rounded=0;exitX=0.95;exitY=0.5;exitDx=0;exitDy=0;exitPerimeter=0;entryX=0.12;entryY=0.9;entryDx=0;entryDy=0;entryPerimeter=0;" parent="1" source="LNqC5kJU6h0bBcwvTaA4-131" target="1c7a67bf8fd3230f-46" edge="1">
          <mxGeometry width="50" height="50" relative="1" as="geometry">
            <mxPoint x="1060" y="890" as="sourcePoint" />
            <mxPoint x="1110" y="840" as="targetPoint" />
          </mxGeometry>
        </mxCell>
        <mxCell id="LNqC5kJU6h0bBcwvTaA4-135" value="" style="endArrow=none;dashed=1;html=1;dashPattern=1 3;strokeWidth=2;rounded=0;exitX=0.95;exitY=0.5;exitDx=0;exitDy=0;exitPerimeter=0;entryX=0;entryY=0.5;entryDx=0;entryDy=0;entryPerimeter=0;" parent="1" source="LNqC5kJU6h0bBcwvTaA4-49" target="1c7a67bf8fd3230f-46" edge="1">
          <mxGeometry width="50" height="50" relative="1" as="geometry">
            <mxPoint x="1060" y="890" as="sourcePoint" />
            <mxPoint x="1110" y="840" as="targetPoint" />
          </mxGeometry>
        </mxCell>
        <mxCell id="kayt-Z3dTmFXOF1LMzfD-3" value="&lt;b&gt;Ports Forwarded: 443&lt;/b&gt;" style="text;html=1;align=center;verticalAlign=middle;whiteSpace=wrap;rounded=0;" parent="1" vertex="1">
          <mxGeometry x="1447.55" y="1220" width="149.94" height="30" as="geometry" />
        </mxCell>
        <mxCell id="g1xqZOuWIzbBwdJRj0BN-2" value="" style="endArrow=none;html=1;rounded=0;exitX=0.95;exitY=0.5;exitDx=0;exitDy=0;exitPerimeter=0;entryX=0.007;entryY=0.63;entryDx=0;entryDy=0;entryPerimeter=0;strokeWidth=2;" parent="1" source="LNqC5kJU6h0bBcwvTaA4-121" target="LNqC5kJU6h0bBcwvTaA4-58" edge="1">
          <mxGeometry width="50" height="50" relative="1" as="geometry">
            <mxPoint x="1392.52" y="1234" as="sourcePoint" />
            <mxPoint x="1442.52" y="1329" as="targetPoint" />
          </mxGeometry>
        </mxCell>
        <mxCell id="g1xqZOuWIzbBwdJRj0BN-6" value="" style="endArrow=classic;html=1;rounded=1;strokeWidth=2;curved=0;entryX=0.28;entryY=0.5;entryDx=0;entryDy=0;entryPerimeter=0;exitX=0.198;exitY=1.02;exitDx=0;exitDy=0;exitPerimeter=0;" parent="1" source="LNqC5kJU6h0bBcwvTaA4-63" target="LNqC5kJU6h0bBcwvTaA4-121" edge="1">
          <mxGeometry width="50" height="50" relative="1" as="geometry">
            <mxPoint x="1240" y="990" as="sourcePoint" />
            <mxPoint x="1594" y="1108" as="targetPoint" />
            <Array as="points">
              <mxPoint x="1260" y="1330" />
            </Array>
          </mxGeometry>
        </mxCell>
        <mxCell id="oMSJrn5D3Jr3AkLNdjL6-1" value="" style="endArrow=classic;html=1;rounded=1;strokeWidth=2;curved=0;" parent="1" edge="1">
          <mxGeometry width="50" height="50" relative="1" as="geometry">
            <mxPoint x="1147.25" y="790" as="sourcePoint" />
            <mxPoint x="1233.25" y="888" as="targetPoint" />
            <Array as="points">
              <mxPoint x="1183.25" y="888" />
            </Array>
          </mxGeometry>
        </mxCell>
        <mxCell id="1c7a67bf8fd3230f-15" value="&lt;font color=&quot;#000000&quot;&gt;Internet&lt;/font&gt;" style="ellipse;shape=cloud;whiteSpace=wrap;html=1;rounded=0;shadow=0;comic=0;strokeWidth=1;fontFamily=Verdana;fontSize=12;fillColor=#FFFFFF;strokeColor=#0D0D0D;labelBackgroundColor=none;" parent="1" vertex="1">
          <mxGeometry x="350" y="557.5" width="120" height="80" as="geometry" />
        </mxCell>
      </root>
    </mxGraphModel>
  </diagram>
</mxfile>
